<svg width="153" height="305" viewBox="0 0 153 305" fill="none" xmlns="http://www.w3.org/2000/svg">
<path d="M12.6002 0.934356C4.30024 4.33436 4.40024 9.03436 13.6002 27.3344C23.3002 46.8344 24.1002 50.3344 24.0002 72.3344C23.9002 91.9344 24.6002 88.2343 14.7002 123.834C13.1002 129.634 11.3002 137.034 10.6002 140.334C9.90024 143.634 8.50024 147.734 7.50024 149.434C-1.69976 164.534 -2.39976 185.234 5.20024 214.534C8.00024 225.534 8.60024 229.634 8.60024 238.334C8.60024 249.534 11.9002 272.534 14.1002 276.734C16.4002 281.334 19.3002 283.134 24.9002 283.634C29.5002 283.934 30.4002 283.734 32.5002 281.534C35.2002 278.534 35.1002 277.534 31.2002 264.334C27.4002 251.734 26.9002 245.034 29.1002 239.134C31.5002 232.834 38.4002 220.834 39.7002 220.834C40.4002 220.834 40.5002 224.134 40.1002 230.634C39.3002 241.734 39.1002 241.234 49.8002 259.234C56.0002 269.534 58.6002 271.834 65.0002 272.534C70.2002 273.134 74.1002 271.234 75.6002 267.234C76.9002 264.034 75.7002 261.134 69.7002 253.434C66.4002 249.034 64.5002 245.434 63.8002 242.134C62.7002 236.534 63.3002 229.834 65.0002 229.834C65.7002 229.834 68.3002 231.134 70.8002 232.734C75.1002 235.534 75.6002 236.234 77.6002 243.034C78.8002 247.034 80.5002 252.734 81.4002 255.634C82.9002 260.534 82.9002 261.234 81.3002 265.634C78.0002 274.734 79.6002 280.834 86.4002 284.534C89.3002 286.234 90.8002 287.934 92.0002 291.234C94.0002 296.534 101.1 303.334 105.5 304.334C110.1 305.334 117.4 304.034 119.6 301.834C120.6 300.834 121.8 298.334 122.2 296.234C122.8 293.034 122.2 291.234 117.8 282.934C110.8 269.434 110.1 266.234 112.6 260.434C113.7 257.834 118.4 250.134 123.1 243.334C133 229.034 140.8 213.434 143.1 203.434C144.3 198.334 144.7 192.134 144.5 179.934L144.3 163.334L148 152.834C151.7 142.434 151.7 142.134 151.5 128.334C151.4 120.634 151.6 108.434 152 101.334C152.9 86.2343 152.2 82.8344 148 82.8344C146.2 82.8344 143 84.7344 138.4 88.5344C122.3 101.934 125.7 100.434 108.5 101.034L93.2002 101.634L86.7002 96.4344C72.9002 85.4344 68.8002 83.7344 66.5002 87.9344C65.2002 90.4344 66.0002 102.634 68.2002 113.134C69.9002 121.334 70.0002 127.034 68.5002 133.834C67.4002 138.934 67.3002 139.034 64.2002 138.434C62.5002 138.034 55.6002 137.534 48.9002 137.234L36.6002 136.534V134.034C36.6002 132.534 38.4002 124.134 40.6002 115.234C50.1002 76.9343 50.9002 57.7344 44.0002 33.8344C40.0002 19.6344 30.2002 5.43436 22.2002 1.73436C17.6002 -0.365643 16.2002 -0.465643 12.6002 0.934356Z" fill="#F9E3D3"/>
</svg>
