<svg width="55" height="52" viewBox="0 0 55 52" fill="none" xmlns="http://www.w3.org/2000/svg">
<path d="M15.5 2.29996C10.6 9.89996 13.6 19.3 20.5 17.6C24.9 16.5 26.4 7.09996 22.9 2.59996C20.4 -0.600035 17.5 -0.700035 15.5 2.29996Z" fill="#F9E3D3"/>
<path d="M31.6 2.19995C26.7 9.99995 30.6 20 37.4 16.9C42.3 14.6 43.1 4.59995 38.7 1.49995C35.7 -0.600051 33.3 -0.400051 31.6 2.19995Z" fill="#F9E3D3"/>
<path d="M45.3 16.6C43.1 18.9 42.8 19.7 43.4 23.8C44.4 31.4 48.8 34.2 53 30C54.4 28.6 55 26.7 55 23.2C55 17.6 54.4 16.5 50.7 15.1C48.3 14.1 47.6 14.3 45.3 16.6Z" fill="#F9E3D3"/>
<path d="M1 18.9C0.5 20 0 23.4 0 26.5C0 31.3 0.3 32.2 2.2 32.9C7.1 34.7 11 31.1 11 24.8C11 18.3 3.7 14 1 18.9Z" fill="#F9E3D3"/>
<path d="M25 23.9C23.5 24.3 21.7 26.1 20.5 28.3C19.4 30.4 17.1 32.9 15.3 34C11.7 36.2 9.3 42.2 10.4 46.5C11.4 50.3 16.6 52.3 22.2 51C24.6 50.5 29.7 50 33.6 50C42.5 50 46.8 48.6 47.6 45.4C48.9 40.2 46.1 35.7 39.5 32.6C37.6 31.7 35.7 29.7 35 28C33.1 23.4 30.5 22.4 25 23.9Z" fill="#F9E3D3"/>
</svg>
